<svg width="128" height="26" preserveAspectRatio="xMidYMid slice" viewBox="0 0 128 26" fill="none" xmlns="http://www.w3.org/2000/svg">
<rect x="1" y="2" width="22" height="22" stroke="white" stroke-width="2"/>
<path d="M8.66402 7L10.677 7L6 19L4 19L8.66402 7Z" fill="white"/>
<path d="M11.5407 15.4265H10L10.3051 13.9853H11.861L12.2881 12H10.7627L11.0678 10.5735H12.6237L13.1881 8H14.8051L14.2254 10.5735H15.7356L16.3153 8H17.9475L17.3831 10.5735H19L18.6949 12H17.078L16.6356 13.9853H18.2525L17.9322 15.4265H16.3305L15.7508 18H14.1034L14.6678 15.4265H13.1729L12.6085 18H10.9763L11.5407 15.4265ZM15.0186 14.0441L15.4915 11.9412H13.8898L13.4169 14.0441H15.0186Z" fill="white"/>
<path d="M40.248 20.82C39.064 20.82 37.648 20.756 36 20.628V4.30801C37.024 4.24401 37.952 4.21201 38.784 4.21201C39.696 4.21201 40.512 4.25201 41.232 4.33201C43.056 4.50801 44.464 4.87601 45.456 5.43601C46.464 5.99601 47.176 6.84401 47.592 7.98001C48.008 9.10001 48.216 10.668 48.216 12.684C48.216 14.796 47.976 16.436 47.496 17.604C47.016 18.756 46.208 19.58 45.072 20.076C43.936 20.572 42.328 20.82 40.248 20.82ZM39.072 18.108C40.032 18.172 40.664 18.196 40.968 18.18C42.056 18.116 42.896 17.908 43.488 17.556C44.08 17.204 44.496 16.636 44.736 15.852C44.992 15.052 45.12 13.94 45.12 12.516C45.12 11.172 45 10.124 44.76 9.37201C44.52 8.60401 44.112 8.04401 43.536 7.69201C42.976 7.32401 42.176 7.08401 41.136 6.97201C40.32 6.89201 39.632 6.85201 39.072 6.85201V18.108Z" fill="white"/>
<path d="M54.2066 20.844C53.0386 20.844 52.1346 20.732 51.4946 20.508C50.8706 20.268 50.4226 19.876 50.1506 19.332C49.8946 18.772 49.7666 17.988 49.7666 16.98C49.7666 15.796 49.9506 14.884 50.3186 14.244C50.6866 13.588 51.3106 13.124 52.1906 12.852C53.0706 12.58 54.3186 12.444 55.9346 12.444H57.8306V12.3C57.8306 11.5 57.6546 10.956 57.3026 10.668C56.9506 10.38 56.2866 10.236 55.3106 10.236C54.4306 10.236 53.8306 10.356 53.5106 10.596C53.2066 10.82 53.0706 11.26 53.1026 11.916H50.1746C50.1266 10.828 50.2466 9.99601 50.5346 9.42001C50.8386 8.82801 51.3586 8.41201 52.0946 8.172C52.8466 7.91601 53.9186 7.78801 55.3106 7.78801C56.7026 7.78801 57.7746 7.92401 58.5266 8.19601C59.2946 8.46801 59.8386 8.92401 60.1586 9.56401C60.4786 10.204 60.6386 11.116 60.6386 12.3V20.628H57.9026V19.14H57.7106C57.2626 19.796 56.7906 20.244 56.2946 20.484C55.7986 20.724 55.1026 20.844 54.2066 20.844ZM52.6946 16.764C52.6946 17.372 52.8306 17.788 53.1026 18.012C53.3906 18.236 53.9266 18.348 54.7106 18.348C55.5106 18.348 56.1266 18.244 56.5586 18.036C56.9906 17.828 57.2946 17.476 57.4706 16.98C57.6626 16.484 57.7746 15.772 57.8066 14.844L55.4306 14.868C54.7106 14.884 54.1506 14.948 53.7506 15.06C53.3666 15.172 53.0946 15.364 52.9346 15.636C52.7746 15.892 52.6946 16.268 52.6946 16.764Z" fill="white"/>
<path d="M67.6373 19.476H66.8213L62.7412 8.10001H65.7173L68.7173 17.316H68.8372L71.7892 8.10001H74.8133L68.5732 25.788H65.5492L67.6373 19.476Z" fill="white"/>
<path d="M83.7559 20.892C82.6039 20.892 81.7319 20.74 81.1399 20.436C80.5479 20.132 80.1479 19.684 79.9399 19.092C79.7319 18.484 79.6279 17.66 79.6279 16.62V10.572H76.5319L77.1079 8.10001H79.7239V5.55601L82.5079 4.38V8.10001H87.1879V10.572H82.5079V16.524C82.5079 17.036 82.5479 17.412 82.6279 17.652C82.7239 17.892 82.9159 18.068 83.2039 18.18C83.5079 18.292 83.9639 18.348 84.5719 18.348C85.2599 18.348 86.2599 18.252 87.5719 18.06V20.58C85.9079 20.788 84.6359 20.892 83.7559 20.892Z" fill="white"/>
<path d="M95.6265 20.844C94.0745 20.844 92.8745 20.652 92.0265 20.268C91.1785 19.868 90.5705 19.212 90.2025 18.3C89.8505 17.372 89.6745 16.052 89.6745 14.34C89.6745 12.612 89.8505 11.284 90.2025 10.356C90.5705 9.42801 91.1705 8.77201 92.0025 8.388C92.8505 7.98801 94.0585 7.78801 95.6265 7.78801C97.1945 7.78801 98.3945 7.98801 99.2265 8.388C100.075 8.77201 100.674 9.42801 101.026 10.356C101.395 11.284 101.578 12.612 101.578 14.34C101.578 16.052 101.395 17.372 101.026 18.3C100.674 19.212 100.075 19.868 99.2265 20.268C98.3785 20.652 97.1785 20.844 95.6265 20.844ZM92.6025 14.34C92.6025 15.396 92.6905 16.212 92.8665 16.788C93.0585 17.348 93.3625 17.748 93.7785 17.988C94.2105 18.228 94.8265 18.348 95.6265 18.348C96.4265 18.348 97.0345 18.228 97.4505 17.988C97.8825 17.748 98.1865 17.348 98.3625 16.788C98.5545 16.212 98.6505 15.396 98.6505 14.34C98.6505 13.268 98.5545 12.444 98.3625 11.868C98.1865 11.292 97.8825 10.884 97.4505 10.644C97.0345 10.388 96.4265 10.26 95.6265 10.26C94.8265 10.26 94.2105 10.388 93.7785 10.644C93.3625 10.884 93.0585 11.292 92.8665 11.868C92.6905 12.444 92.6025 13.268 92.6025 14.34Z" fill="white"/>
<path d="M103.489 8.10001H106.417V9.82801H106.609C107.057 9.04401 107.521 8.50801 108.001 8.22001C108.481 7.93201 109.161 7.78801 110.041 7.78801C111.257 7.78801 112.193 7.94001 112.849 8.24401C113.505 8.53201 113.969 9.02801 114.241 9.73201C114.529 10.42 114.673 11.412 114.673 12.708V20.628H111.745V12.66C111.745 11.78 111.577 11.18 111.241 10.86C110.921 10.54 110.313 10.38 109.417 10.38C108.633 10.38 108.025 10.492 107.593 10.716C107.177 10.94 106.873 11.324 106.681 11.868C106.505 12.396 106.417 13.148 106.417 14.124V20.628H103.489V8.10001Z" fill="white"/>
<path d="M121.36 20.844C120.192 20.844 119.288 20.732 118.648 20.508C118.024 20.268 117.576 19.876 117.304 19.332C117.048 18.772 116.92 17.988 116.92 16.98C116.92 15.796 117.104 14.884 117.472 14.244C117.84 13.588 118.464 13.124 119.344 12.852C120.224 12.58 121.472 12.444 123.088 12.444H124.984V12.3C124.984 11.5 124.808 10.956 124.456 10.668C124.104 10.38 123.44 10.236 122.464 10.236C121.584 10.236 120.984 10.356 120.664 10.596C120.36 10.82 120.224 11.26 120.256 11.916H117.328C117.28 10.828 117.4 9.99601 117.688 9.42001C117.992 8.82801 118.512 8.41201 119.248 8.172C120 7.91601 121.072 7.78801 122.464 7.78801C123.856 7.78801 124.928 7.92401 125.68 8.19601C126.448 8.46801 126.992 8.92401 127.312 9.56401C127.632 10.204 127.792 11.116 127.792 12.3V20.628H125.056V19.14H124.864C124.416 19.796 123.944 20.244 123.448 20.484C122.952 20.724 122.256 20.844 121.36 20.844ZM119.848 16.764C119.848 17.372 119.984 17.788 120.256 18.012C120.544 18.236 121.08 18.348 121.864 18.348C122.664 18.348 123.28 18.244 123.712 18.036C124.144 17.828 124.448 17.476 124.624 16.98C124.816 16.484 124.928 15.772 124.96 14.844L122.584 14.868C121.864 14.884 121.304 14.948 120.904 15.06C120.52 15.172 120.248 15.364 120.088 15.636C119.928 15.892 119.848 16.268 119.848 16.764Z" fill="white"/>
</svg>
