<svg width="26" height="26" viewBox="0 0 26 26" fill="none" xmlns="http://www.w3.org/2000/svg">
<rect x="1" y="1" width="24" height="24" stroke="#121212" stroke-width="2"/>
<path d="M9.66402 7L11.677 7L7 19L5 19L9.66402 7Z" fill="#121212"/>
<path d="M12.5407 15.4265H11L11.3051 13.9853H12.861L13.2881 12H11.7627L12.0678 10.5735H13.6237L14.1881 8H15.8051L15.2254 10.5735H16.7356L17.3153 8H18.9475L18.3831 10.5735H20L19.6949 12H18.078L17.6356 13.9853H19.2525L18.9322 15.4265H17.3305L16.7508 18H15.1034L15.6678 15.4265H14.1729L13.6085 18H11.9763L12.5407 15.4265ZM16.0186 14.0441L16.4915 11.9412H14.8898L14.4169 14.0441H16.0186Z" fill="#121212"/>
</svg>
