<svg width="80" height="80" viewBox="0 0 80 80" fill="none" xmlns="http://www.w3.org/2000/svg">
<path fill-rule="evenodd" clip-rule="evenodd" d="M50.0589 0L26.3027 23.6343V13.5288H16.7039V36.6073H26.3027V23.6343L33.0902 30.3869L56.8464 6.75266L50.0589 0ZM43.1008 20.6906H75.0973V30.2403H43.1008V20.6906ZM19.5145 54.1148H5.50889V63.6646H33.5058V54.1148H19.8086L26.449 47.5085L8.20446 29.3575L1.41699 36.1101L19.5145 54.1148ZM31.2169 80L50.3036 61.0112V75.6016H59.9025V46.9524H50.3036V60.7237L43.6606 54.1148L24.4294 73.2473L31.2169 80ZM71.7954 58.377L50.3018 36.9936L57.0892 30.2409L78.5829 51.6244L71.7954 58.377Z" fill="white"/>
</svg>
