<svg width="24" height="24" viewBox="0 0 24 24" fill="none" xmlns="http://www.w3.org/2000/svg">
<path d="M18.75 11.25C18.75 11.5467 18.662 11.8367 18.4972 12.0834C18.3324 12.33 18.0981 12.5223 17.824 12.6358C17.5499 12.7494 17.2483 12.7791 16.9574 12.7212C16.6664 12.6633 16.3991 12.5204 16.1893 12.3107C15.9796 12.1009 15.8367 11.8336 15.7788 11.5426C15.7209 11.2517 15.7506 10.9501 15.8642 10.676C15.9777 10.4019 16.17 10.1676 16.4166 10.0028C16.6633 9.83797 16.9533 9.75 17.25 9.75C17.6478 9.75 18.0294 9.90804 18.3107 10.1893C18.592 10.4706 18.75 10.8522 18.75 11.25ZM14.625 6H10.875C10.5766 6 10.2905 6.11853 10.0795 6.3295C9.86853 6.54048 9.75 6.82663 9.75 7.125C9.75 7.42337 9.86853 7.70952 10.0795 7.9205C10.2905 8.13147 10.5766 8.25 10.875 8.25H14.625C14.9234 8.25 15.2095 8.13147 15.4205 7.9205C15.6315 7.70952 15.75 7.42337 15.75 7.125C15.75 6.82663 15.6315 6.54048 15.4205 6.3295C15.2095 6.11853 14.9234 6 14.625 6ZM24 10.5V13.5C24.0001 14.1888 23.7295 14.85 23.2465 15.3411C22.7635 15.8321 22.1068 16.1137 21.4181 16.125L19.9875 20.1309C19.8574 20.4951 19.6178 20.8102 19.3016 21.0329C18.9854 21.2556 18.608 21.3751 18.2213 21.375H17.0287C16.642 21.3751 16.2646 21.2556 15.9484 21.0329C15.6322 20.8102 15.3926 20.4951 15.2625 20.1309L15.1688 19.875H10.3284L10.2347 20.1309C10.1047 20.4947 9.86554 20.8094 9.5499 21.0321C9.23425 21.2548 8.85754 21.3745 8.47125 21.375H7.27875C6.89198 21.3751 6.51464 21.2556 6.19844 21.0329C5.88224 20.8102 5.64265 20.4951 5.5125 20.1309L4.35938 16.9012C3.37374 15.7668 2.70298 14.3936 2.41406 12.9188C2.30702 13.0938 2.25025 13.2949 2.25 13.5C2.25 13.7984 2.13147 14.0845 1.9205 14.2955C1.70952 14.5065 1.42337 14.625 1.125 14.625C0.826631 14.625 0.540483 14.5065 0.329505 14.2955C0.118526 14.0845 0 13.7984 0 13.5C0.00106431 12.7929 0.223768 12.1039 0.636786 11.5299C1.0498 10.956 1.63236 10.526 2.3025 10.3003C2.53885 8.19123 3.54343 6.24298 5.12457 4.82732C6.70571 3.41166 8.75272 2.62769 10.875 2.625H20.625C20.9234 2.625 21.2095 2.74353 21.4205 2.9545C21.6315 3.16548 21.75 3.45163 21.75 3.75C21.75 4.04837 21.6315 4.33452 21.4205 4.5455C21.2095 4.75647 20.9234 4.875 20.625 4.875H19.6875C20.5909 5.69746 21.3092 6.70246 21.795 7.82344L21.8344 7.91719C22.4407 8.02589 22.9896 8.34399 23.3854 8.81601C23.7812 9.28803 23.9987 9.88401 24 10.5ZM21.75 10.5C21.75 10.4005 21.7105 10.3052 21.6402 10.2348C21.5698 10.1645 21.4745 10.125 21.375 10.125H21.0319C20.7923 10.125 20.559 10.0485 20.3659 9.9067C20.1729 9.76489 20.0301 9.56515 19.9584 9.33656C19.5512 8.0423 18.7416 6.91174 17.6475 6.10932C16.5534 5.3069 15.2318 4.8745 13.875 4.875H10.875C9.63779 4.87491 8.42728 5.23483 7.3911 5.91087C6.35492 6.58691 5.53784 7.54985 5.03952 8.68227C4.54119 9.81468 4.38315 11.0676 4.58466 12.2883C4.78617 13.509 5.33853 14.6447 6.17438 15.5569C6.2758 15.667 6.35393 15.7964 6.40406 15.9375L7.54313 19.125H8.20687L8.47594 18.375C8.55341 18.1559 8.69686 17.9661 8.88655 17.8318C9.07625 17.6975 9.30289 17.6253 9.53531 17.625H15.9647C16.1971 17.6253 16.4237 17.6975 16.6134 17.8318C16.8031 17.9661 16.9466 18.1559 17.0241 18.375L17.2931 19.125H17.9569L19.5656 14.625C19.6431 14.4059 19.7865 14.2161 19.9762 14.0818C20.1659 13.9475 20.3926 13.8753 20.625 13.875H21.375C21.4745 13.875 21.5698 13.8355 21.6402 13.7652C21.7105 13.6948 21.75 13.5995 21.75 13.5V10.5Z" fill="white"/>
</svg>
