<svg width="164" height="88" viewBox="0 0 164 88" fill="none" xmlns="http://www.w3.org/2000/svg">
<rect x="0.5" y="34.5" width="163" height="27" stroke="#121212"/>
<line x1="12.5" y1="44" x2="12.5" y2="52" stroke="#121212"/>
<line x1="22.5" y1="44" x2="22.5" y2="52" stroke="#121212"/>
<line x1="32.5" y1="44" x2="32.5" y2="52" stroke="#121212"/>
<line x1="42.5" y1="44" x2="42.5" y2="52" stroke="#121212"/>
<line x1="52.5" y1="44" x2="52.5" y2="52" stroke="#121212"/>
<line x1="82.5" y1="68" x2="82.5" y2="87" stroke="#121212"/>
<line x1="163" y1="87.5" y2="87.5" stroke="#121212"/>
<rect x="144" y="44" width="8" height="8" fill="#2ECC71"/>
<rect x="0.5" y="0.5" width="163" height="27" stroke="#121212"/>
<line x1="12.5" y1="10" x2="12.5" y2="18" stroke="#121212"/>
<line x1="22.5" y1="10" x2="22.5" y2="18" stroke="#121212"/>
<line x1="32.5" y1="10" x2="32.5" y2="18" stroke="#121212"/>
<line x1="42.5" y1="10" x2="42.5" y2="18" stroke="#121212"/>
<line x1="52.5" y1="10" x2="52.5" y2="18" stroke="#121212"/>
<rect x="144" y="10" width="8" height="8" fill="#2ECC71"/>
</svg>
