<svg width="58" height="52" viewBox="0 0 58 52" fill="none" xmlns="http://www.w3.org/2000/svg">
<path d="M1.86612 0.000153235C1.59725 -0.00331455 1.33087 0.0521143 1.0857 0.162549C0.840534 0.272983 0.62251 0.435746 0.446938 0.639409C0.271366 0.843072 0.142504 1.0827 0.0693976 1.34146C-0.00370835 1.60023 -0.0192854 1.87186 0.02376 2.13729L7.84457 49.6149C7.94201 50.1959 8.24105 50.7239 8.68917 51.1063C9.13729 51.4888 9.70582 51.7011 10.2949 51.7059H47.8145C48.2561 51.7116 48.6851 51.5585 49.0232 51.2744C49.3614 50.9904 49.5863 50.5943 49.6569 50.1584L57.4777 2.1465C57.5207 1.88107 57.5052 1.60944 57.4321 1.35068C57.359 1.09191 57.2301 0.852284 57.0545 0.648621C56.8789 0.444958 56.6609 0.282195 56.4158 0.171761C56.1706 0.0613263 55.9042 0.00589701 55.6353 0.0093648L1.86612 0.000153235ZM34.7983 34.3141H22.8229L19.5804 17.3736H37.7L34.7983 34.3141Z" fill="#121212"/>
<path d="M54.9913 17.375H37.7007L34.799 34.3155H22.8237L8.68359 51.0994C9.13177 51.4869 9.70318 51.7024 10.2957 51.7073H47.8245C48.2661 51.713 48.695 51.5599 49.0332 51.2758C49.3714 50.9918 49.5962 50.5957 49.6668 50.1598L54.9913 17.375Z" fill="#121212"/>
</svg>
