<svg width="59" height="58" viewBox="0 0 59 58" fill="none" xmlns="http://www.w3.org/2000/svg">
<path fill-rule="evenodd" clip-rule="evenodd" d="M29.5 0C13.2012 0 0 13.3058 0 29.7335C0 42.8906 8.44438 54.0035 20.1706 57.9432C21.6456 58.2034 22.1988 57.3114 22.1988 56.5309C22.1988 55.8247 22.1619 53.4832 22.1619 50.993C14.75 52.3682 12.8325 49.1718 12.2425 47.4993C11.9106 46.6445 10.4725 44.0056 9.21875 43.2994C8.18625 42.7419 6.71125 41.3668 9.18188 41.3296C11.505 41.2924 13.1644 43.4853 13.7175 44.3773C16.3725 48.8745 20.6131 47.6108 22.3094 46.8303C22.5675 44.8976 23.3419 43.5968 24.19 42.8534C17.6263 42.1101 10.7675 39.5456 10.7675 28.1725C10.7675 24.939 11.9106 22.263 13.7913 20.1816C13.4963 19.4383 12.4638 16.3906 14.0863 12.3022C14.0863 12.3022 16.5569 11.5217 22.1988 15.3499C24.5588 14.6809 27.0663 14.3464 29.5738 14.3464C32.0813 14.3464 34.5888 14.6809 36.9488 15.3499C42.5906 11.4846 45.0613 12.3022 45.0613 12.3022C46.6838 16.3906 45.6513 19.4383 45.3563 20.1816C47.2369 22.263 48.38 24.9018 48.38 28.1725C48.38 39.5827 41.4844 42.1101 34.9206 42.8534C35.99 43.7826 36.9119 45.5666 36.9119 48.3541C36.9119 52.331 36.875 55.5274 36.875 56.5309C36.875 57.3114 37.4281 58.2405 38.9031 57.9432C50.5556 54.0035 59 42.8534 59 29.7335C59 13.3058 45.7988 0 29.5 0V0Z" fill="#121212"/>
</svg>
