<svg width="60" height="58" viewBox="0 0 60 58" fill="none" xmlns="http://www.w3.org/2000/svg">
<path d="M58.6442 22.7345L58.5604 22.5203L50.4433 1.33612C50.2782 0.920919 49.9857 0.568705 49.608 0.330011C49.23 0.0953716 48.7892 -0.0176381 48.3449 0.00624004C47.9007 0.0301182 47.4745 0.189735 47.1238 0.463537C46.7771 0.745201 46.5255 1.12687 46.4034 1.55659L40.9227 18.3251H18.7297L13.249 1.55659C13.1301 1.12452 12.878 0.740948 12.5286 0.460431C12.1779 0.186629 11.7517 0.0270123 11.3075 0.00313411C10.8632 -0.0207441 10.4224 0.0922657 10.0444 0.326905C9.6675 0.566563 9.37533 0.918469 9.20908 1.33301L1.07651 22.5079L0.995771 22.7221C-0.172716 25.7752 -0.316947 29.1255 0.584825 32.2677C1.4866 35.41 3.38548 38.1739 5.99518 40.1427L6.02312 40.1644L6.09765 40.2172L18.4626 49.4771L24.5799 54.1071L28.3062 56.9205C28.7421 57.2514 29.2743 57.4306 29.8215 57.4306C30.3688 57.4306 30.901 57.2514 31.3369 56.9205L35.0632 54.1071L41.1804 49.4771L53.62 40.1613L53.651 40.1365C56.2549 38.1673 58.1493 35.4063 59.0497 32.2682C59.9501 29.1302 59.8078 25.7848 58.6442 22.7345Z" fill="#121212"/>
<path d="M58.6461 22.7377L58.5622 22.5234C54.6071 23.3353 50.8801 25.0106 47.6474 27.4298L29.8203 40.9098C35.891 45.5024 41.1761 49.4927 41.1761 49.4927L53.6156 40.1769L53.6467 40.1521C56.2542 38.183 58.1517 35.4201 59.0533 32.2794C59.9549 29.1387 59.812 25.7902 58.6461 22.7377Z" fill="#121212"/>
<path d="M18.4648 49.4892L24.5821 54.1192L28.3084 56.9325C28.7443 57.2635 29.2765 57.4427 29.8237 57.4427C30.371 57.4427 30.9032 57.2635 31.3391 56.9325L35.0654 54.1192L41.1826 49.4892C41.1826 49.4892 35.8913 45.4865 29.8206 40.9062C23.7499 45.4865 18.4648 49.4892 18.4648 49.4892Z" fill="#121212"/>
<path d="M11.9883 27.4266C8.75818 25.0024 5.03194 23.3227 1.07651 22.5078L0.995771 22.7221C-0.172716 25.7752 -0.316947 29.1254 0.584825 32.2677C1.4866 35.4099 3.38548 38.1738 5.99518 40.1426L6.02313 40.1644L6.09765 40.2172L18.4626 49.4771C18.4626 49.4771 23.7415 45.4868 29.8184 40.8941L11.9883 27.4266Z" fill="#121212"/>
</svg>
