<svg width="200" height="43" viewBox="0 0 200 43" fill="none" xmlns="http://www.w3.org/2000/svg">
<rect x="0.5" y="0.5" width="199" height="42" stroke="#121212"/>
<path d="M107.072 19.192L107.168 17.56H107.072L105.984 18.472L103.632 19.96V18.456L106.88 16.12H108.416V27H107.072V19.192ZM112.762 24.984C114.159 23.7893 115.189 22.888 115.85 22.28C116.511 21.6613 117.061 21.0747 117.498 20.52C117.733 20.2427 117.893 19.9973 117.978 19.784C118.063 19.56 118.106 19.2933 118.106 18.984C118.106 18.5147 118.042 18.152 117.914 17.896C117.797 17.6293 117.594 17.4427 117.306 17.336C117.018 17.2293 116.607 17.176 116.074 17.176C115.562 17.176 115.162 17.224 114.874 17.32C114.586 17.4053 114.373 17.56 114.234 17.784C114.095 17.9973 114.005 18.3067 113.962 18.712H112.538C112.602 17.9867 112.746 17.432 112.97 17.048C113.205 16.6533 113.562 16.376 114.042 16.216C114.522 16.0453 115.194 15.96 116.058 15.96C116.954 15.96 117.642 16.0507 118.122 16.232C118.613 16.4133 118.959 16.7227 119.162 17.16C119.365 17.5973 119.466 18.216 119.466 19.016C119.466 19.5067 119.391 19.9227 119.242 20.264C119.093 20.6053 118.81 21 118.394 21.448C117.615 22.2693 116.933 22.968 116.346 23.544C115.759 24.1093 115.039 24.76 114.186 25.496V25.72H119.706V27H112.762V24.984ZM127.428 17.432H121.908V16.12H128.724V17.784L124.084 27.16H122.548L127.428 17.432ZM133.821 24.552H136.253V27H133.821V24.552ZM144.471 27.16C143.661 27.16 143.053 27.1067 142.647 27C142.242 26.8827 141.927 26.6587 141.703 26.328C141.479 25.9973 141.282 25.4747 141.111 24.76C141.015 24.3547 140.941 23.912 140.887 23.432C140.834 22.952 140.807 22.328 140.807 21.56C140.807 20.8027 140.834 20.184 140.887 19.704C140.951 19.224 141.031 18.776 141.127 18.36C141.298 17.6453 141.49 17.1227 141.703 16.792C141.927 16.4613 142.242 16.2427 142.647 16.136C143.053 16.0187 143.661 15.96 144.471 15.96C145.282 15.96 145.89 16.0187 146.295 16.136C146.701 16.2427 147.01 16.4613 147.223 16.792C147.447 17.1227 147.645 17.6453 147.815 18.36C147.911 18.776 147.986 19.224 148.039 19.704C148.103 20.184 148.135 20.8027 148.135 21.56C148.135 22.328 148.109 22.952 148.055 23.432C148.002 23.912 147.927 24.3547 147.831 24.76C147.661 25.4747 147.463 25.9973 147.239 26.328C147.015 26.6587 146.701 26.8827 146.295 27C145.89 27.1067 145.282 27.16 144.471 27.16ZM142.167 21.56C142.167 22.3707 142.21 23.0853 142.295 23.704L146.423 18.248C146.295 17.8427 146.093 17.56 145.815 17.4C145.549 17.2293 145.101 17.144 144.471 17.144C143.959 17.144 143.565 17.1973 143.287 17.304C143.021 17.4107 142.823 17.576 142.695 17.8C142.578 18.024 142.482 18.3493 142.407 18.776C142.333 19.224 142.274 19.6293 142.231 19.992C142.189 20.3547 142.167 20.8773 142.167 21.56ZM142.551 24.952C142.669 25.3253 142.866 25.592 143.143 25.752C143.421 25.9013 143.863 25.976 144.471 25.976C144.983 25.976 145.373 25.9227 145.639 25.816C145.917 25.7093 146.114 25.544 146.231 25.32C146.359 25.096 146.461 24.7707 146.535 24.344C146.61 23.896 146.669 23.4907 146.711 23.128C146.754 22.7653 146.775 22.2427 146.775 21.56C146.775 20.8027 146.733 20.1147 146.647 19.496L142.551 24.952ZM152.689 24.552H155.121V27H152.689V24.552ZM163.339 27.16C162.528 27.16 161.92 27.1067 161.515 27C161.109 26.8827 160.795 26.6587 160.571 26.328C160.347 25.9973 160.149 25.4747 159.979 24.76C159.883 24.3547 159.808 23.912 159.755 23.432C159.701 22.952 159.675 22.328 159.675 21.56C159.675 20.8027 159.701 20.184 159.755 19.704C159.819 19.224 159.899 18.776 159.995 18.36C160.165 17.6453 160.357 17.1227 160.571 16.792C160.795 16.4613 161.109 16.2427 161.515 16.136C161.92 16.0187 162.528 15.96 163.339 15.96C164.149 15.96 164.757 16.0187 165.163 16.136C165.568 16.2427 165.877 16.4613 166.091 16.792C166.315 17.1227 166.512 17.6453 166.683 18.36C166.779 18.776 166.853 19.224 166.907 19.704C166.971 20.184 167.003 20.8027 167.003 21.56C167.003 22.328 166.976 22.952 166.923 23.432C166.869 23.912 166.795 24.3547 166.699 24.76C166.528 25.4747 166.331 25.9973 166.107 26.328C165.883 26.6587 165.568 26.8827 165.163 27C164.757 27.1067 164.149 27.16 163.339 27.16ZM161.035 21.56C161.035 22.3707 161.077 23.0853 161.163 23.704L165.291 18.248C165.163 17.8427 164.96 17.56 164.683 17.4C164.416 17.2293 163.968 17.144 163.339 17.144C162.827 17.144 162.432 17.1973 162.155 17.304C161.888 17.4107 161.691 17.576 161.563 17.8C161.445 18.024 161.349 18.3493 161.275 18.776C161.2 19.224 161.141 19.6293 161.099 19.992C161.056 20.3547 161.035 20.8773 161.035 21.56ZM161.419 24.952C161.536 25.3253 161.733 25.592 162.011 25.752C162.288 25.9013 162.731 25.976 163.339 25.976C163.851 25.976 164.24 25.9227 164.507 25.816C164.784 25.7093 164.981 25.544 165.099 25.32C165.227 25.096 165.328 24.7707 165.403 24.344C165.477 23.896 165.536 23.4907 165.579 23.128C165.621 22.7653 165.643 22.2427 165.643 21.56C165.643 20.8027 165.6 20.1147 165.515 19.496L161.419 24.952ZM171.556 24.552H173.988V27H171.556V24.552ZM182.542 19.192L182.638 17.56H182.542L181.454 18.472L179.102 19.96V18.456L182.35 16.12H183.886V27H182.542V19.192Z" fill="#121212"/>
<path d="M14 18.6957L23 13L32 18.6957V30H14V18.6957Z" fill="#2ECC71"/>
</svg>
